<?xml version="1.0" encoding="utf-8"?>
<!-- Generator: Adobe Illustrator 24.0.2, SVG Export Plug-In . SVG Version: 6.00 Build 0)  -->
<svg version="1.1" id="Capa_1" xmlns="http://www.w3.org/2000/svg" xmlns:xlink="http://www.w3.org/1999/xlink" x="0px" y="0px"
	 viewBox="0 0 106 120" style="enable-background:new 0 0 106 120;" xml:space="preserve">
<style type="text/css">
	.st0{fill-rule:evenodd;clip-rule:evenodd;}
</style>
<g>
	<g id="Angular" transform="translate(-11.000000, -4.000000)">
		<g id="Group-9" transform="translate(11.000000, 4.000000)">
			<path id="Path_1_" class="st0" d="M35.4,95.8c1.2,0,2.4,0.3,3.5,0.9l13.9,8l13.9-7.9c2.2-1.2,4.8-1.2,7,0s3.5,3.6,3.5,6.1
				s-1.3,4.8-3.5,6.1l-17.4,10c-2.2,1.2-4.8,1.2-7,0l-17.4-10c-2.8-1.6-4.2-4.8-3.4-7.9S32.1,95.8,35.4,95.8z"/>
			<path id="Path_2_" d="M53.6,0.9c1.2,0,2.4,0.3,3.5,0.9l45.4,26.3c2.2,1.3,3.5,3.6,3.5,6.1l-0.1,52.5c0,2.5-1.3,4.8-3.5,6
				l-11.2,6.4c-2.2,1.3-4.8,1.3-7,0.1s-3.5-3.6-3.5-6.1c0-2.5,1.4-4.8,3.6-6l7.7-4.4l0.1-44.4L53.6,16L16.5,37.3
				c-0.9,0.5-1.5,1.5-1.5,2.6l-0.1,40.9c0,1.1,0.6,2.1,1.5,2.6l6,3.5c1.3,0.8,2.4,1.9,3,3.3c1.4,3.4,0,7.1-2.9,8.8
				c-2.2,1.2-4.8,1.2-7,0L4.5,92.6C2.3,91.3,1,89,1,86.6l0.1-52.5c0-2.5,1.3-4.8,3.5-6.1L50.1,1.9C51.2,1.3,52.4,0.9,53.6,0.9z"/>
			<path id="Path_3_" d="M27.8,14.4C38.9,7.8,52.9,16,52.9,16l36.9,21.4c0.9,0.5,1.5,1.5,1.5,2.6L91.2,81c0,1.1-0.6,2.1-1.5,2.6
				l-6.2,3.6c-2.2,1.2-3.6,3.5-3.7,6.1c0,2.5,1.3,4.9,3.5,6.2c2.2,1.3,4.9,1.2,7.1-0.1l11.2-6.5c2.2-1.2,3.5-3.6,3.5-6.1l0.1-52.5
				c0-2.5-1.3-4.8-3.5-6.1L56.5,1.9c-2.2-1.3-4.8-1.3-7,0L27.8,14.4L27.8,14.4z"/>
		</g>
	</g>
</g>
<g>
	<path d="M42,51.9h6.9v16.7C48.9,76,42.7,82,35.1,82c-7.6,0-13.8-6.1-13.8-13.4h6.9c0,3.6,3.1,6.5,6.8,6.5c3.8,0,6.9-2.9,6.9-6.5
		V51.9z M48.9,40.3v6.9H26.6v-6.9H48.9z"/>
	<path d="M84.9,54.8c0,8-6.6,14.5-14.8,14.5H59v12.1H52V62.3h18c4.4,0,7.9-3.4,7.9-7.5c0-4.2-3.5-7.5-7.9-7.5H52v-6.9h18
		C78.2,40.3,84.9,46.8,84.9,54.8z"/>
</g>
</svg>
